<svg width="451" height="887" viewBox="0 0 451 887" fill="none" xmlns="http://www.w3.org/2000/svg">
<path opacity="0.779715" d="M95.6675 971.606C86.0966 1065.6 3.02936 1079.11 -52.136 1075.55C-107.301 1071.98 -223.576 1034.11 -344.761 1028.87C-465.945 1023.62 -666.878 976.565 -686.456 923.987C-706.035 871.41 -712.536 707.766 -688.022 658.048C-663.509 608.329 -586.914 560.526 -557.539 534.958C-528.163 509.39 -196.35 369.097 -87.9992 397.762C-15.7653 416.872 26.9215 458.055 40.061 521.31C77.0561 821.05 105.238 877.613 95.6675 971.606Z" fill="url(#paint0_linear)" fill-opacity="0.2"/>
<path d="M132.809 951.495C123.238 1045.49 40.1707 1059 -14.9947 1055.44C-70.16 1051.87 -186.435 1014 -307.619 1008.75C-428.804 1003.51 -629.736 956.453 -649.315 903.876C-668.894 851.298 -675.394 687.655 -650.881 637.936C-626.368 588.218 -549.773 540.414 -520.398 514.846C-491.022 489.278 -159.209 348.986 -50.8579 377.651C21.3761 396.761 64.0628 437.943 77.2024 501.198C114.197 800.939 142.38 857.501 132.809 951.495Z" fill="url(#paint1_linear)" fill-opacity="0.2"/>
<defs>
<linearGradient id="paint0_linear" x1="110.254" y1="1064.04" x2="50.2135" y2="377.776" gradientUnits="userSpaceOnUse">
<stop stop-color="#3373DF"/>
<stop offset="1" stop-color="#3A71E3"/>
</linearGradient>
<linearGradient id="paint1_linear" x1="147.395" y1="1043.93" x2="87.3548" y2="357.665" gradientUnits="userSpaceOnUse">
<stop stop-color="#3373DF"/>
<stop offset="1" stop-color="#3A71E3"/>
</linearGradient>
</defs>
</svg>
