<svg width="124" height="120" viewBox="0 0 124 120" fill="none" xmlns="http://www.w3.org/2000/svg">
<path opacity="0.110328" fill-rule="evenodd" clip-rule="evenodd" d="M62.6731 108.613C87.9874 107.222 109.492 89.5951 114.985 65.0657C117.889 52.0978 116.192 37.528 102.862 24.5693C79.0332 1.40401 56.4832 16.693 44.9498 28.1661C39.3691 33.7074 33.0328 38.4461 26.1244 42.2451C13.6994 49.094 -2.92231 63.6849 13.9155 88.1829C26.1196 105.939 45.8112 109.539 62.6731 108.613Z" fill="#17162A"/>
<path d="M65.9677 71.8321C65.885 71.0525 65.5167 70.3322 64.935 69.8122C64.3532 69.2921 63.5999 69.0099 62.8226 69.0208C62.1145 69.016 61.4254 69.2512 60.8658 69.6888C60.3062 70.1263 59.9086 70.7409 59.7368 71.4337L56.651 86.547C56.5491 86.9889 56.4962 87.4408 56.4933 87.8945C56.4933 91.3026 59.3214 93.671 62.8226 93.671C66.3238 93.671 69.1536 91.3026 69.1536 87.8945C69.1517 87.3485 69.0782 86.8051 68.9348 86.2785L65.9677 71.8321Z" fill="#3F3D56"/>
<path d="M89.3096 78.5926C88.9957 78.3151 88.6581 78.0662 88.3008 77.8487L76.5121 69.5396C75.3642 68.8129 74.1384 68.8334 73.2482 69.7106C72.8597 70.0836 72.613 70.582 72.5511 71.1194C72.4891 71.6567 72.6158 72.199 72.9091 72.6519L81.8104 84.4511C82.0137 84.7372 82.2406 85.0055 82.4887 85.2531C84.0316 86.9922 87.453 87.088 89.3333 85.2531C91.1882 83.3875 91.1662 80.0632 89.3096 78.5926Z" fill="#3F3D56"/>
<path d="M98.1685 66.2833H86.2289C85.8462 66.2686 85.4732 66.407 85.1912 66.6684C84.9093 66.9297 84.7411 67.2929 84.7233 67.6787C84.7171 68.0345 84.8293 68.3821 85.042 68.666C85.2547 68.9499 85.5555 69.1538 85.8965 69.2451L97.1597 72.7592C98.7958 73.144 101 71.6733 101 69.8367C101 67.5008 99.7114 66.2833 98.1685 66.2833Z" fill="#3F3D56"/>
<path d="M41.356 67.672C41.3436 67.4736 41.292 67.2797 41.2043 67.1016C41.1167 66.9236 40.9946 66.7649 40.8454 66.635C40.6962 66.5051 40.5229 66.4064 40.3354 66.3449C40.148 66.2834 39.9503 66.2602 39.7538 66.2766H27.8142C26.3103 66.2766 25.0421 67.9148 25.0421 69.7514C25.0421 71.588 27.1818 73.1441 28.823 72.7594L40.2557 69.2452C40.5985 69.1649 40.9001 68.9602 41.103 68.6701C41.3059 68.38 41.396 68.0247 41.356 67.672Z" fill="#3F3D56"/>
<path d="M49.5503 69.5534L37.7582 77.8265C37.392 78.0343 37.0506 78.284 36.7409 78.5704C35.8739 79.3837 35.3628 80.511 35.3199 81.7043C35.2771 82.8977 35.706 84.0593 36.5123 84.9337C36.5857 85.0133 36.6619 85.0902 36.7409 85.1643C37.6659 86.0454 38.8901 86.5363 40.1624 86.5363C41.4348 86.5363 42.6589 86.0454 43.5839 85.1643C43.836 84.9211 44.0631 84.653 44.2621 84.364L53.1702 72.6314C53.4685 72.1845 53.5984 71.6446 53.5362 71.1095C53.474 70.5743 53.2239 70.0794 52.8311 69.7141C52.3914 69.3005 51.8205 69.0574 51.2199 69.0279C50.6193 68.9985 50.0278 69.1847 49.5503 69.5534Z" fill="#3F3D56"/>
<path d="M67.8929 53.3844C68.0297 53.1814 68.1056 52.943 68.1116 52.6976C68.1116 51.2492 65.2819 50.2427 61.7807 50.2427C58.2795 50.2427 55.4514 51.2492 55.4514 52.6976C55.4565 52.8987 55.5106 53.0954 55.6091 53.2703L58.6949 59.6933C59.0484 60.2993 60.3233 60.7229 61.7807 60.7187C63.4236 60.7187 64.7885 60.1947 64.9258 59.5239L67.8929 53.3844Z" fill="#3F3D56"/>
<path d="M88.2913 53.8211C86.411 53.0414 82.9895 53.0821 81.4467 53.8211C81.2132 53.9191 80.9865 54.0329 80.7684 54.162L71.8671 59.1765C71.2619 59.5737 71.4045 60.0994 72.2062 60.4265C73.2598 60.7947 74.4014 60.8201 75.47 60.4992L87.2588 56.9679C87.6003 56.8805 87.9371 56.7749 88.2676 56.6518C90.1242 56.0268 90.1462 54.614 88.2913 53.8211Z" fill="#3F3D56"/>
<path d="M99.9578 60.3727C99.9578 59.5922 97.7537 58.9672 96.1176 59.1307L84.8544 60.6241C84.1813 60.7193 83.6812 60.9403 83.6812 61.2898C83.6812 61.6394 84.4153 61.8828 85.1867 61.8828H97.1264C98.6693 61.8828 99.9578 61.3654 99.9578 60.3727Z" fill="#3F3D56"/>
<path d="M39.2136 60.6235L27.7809 59.13C26.1397 58.9665 23.9999 59.6278 23.9999 60.4083C23.9999 61.1889 25.2682 61.8851 26.7721 61.8851H38.7117C39.5425 61.8851 40.3139 61.6554 40.3139 61.2921C40.3139 60.9287 39.9579 60.7187 39.2136 60.6235Z" fill="#3F3D56"/>
<path d="M51.789 60.4246C52.6232 60.0925 52.7215 59.5903 52.1281 59.1847L43.22 54.1986C43.0034 54.0669 42.7766 53.9532 42.5418 53.8585C40.3259 53.081 37.9147 53.081 35.6988 53.8585C35.6199 53.8899 35.5437 53.9226 35.4702 53.9565C33.7911 54.7303 33.8935 55.9411 35.6988 56.6608C36.0304 56.7893 36.3703 56.895 36.7161 56.9769L48.5082 60.4929C49.5823 60.8147 50.729 60.7908 51.789 60.4246Z" fill="#3F3D56"/>
<path d="M86.0642 52.3451C86.0642 70.9192 75.8003 71.2627 63.1393 71.2627C50.4782 71.2627 29.6913 67.5883 40.2144 52.3451C51.3132 36.2679 70.3536 5.62302 63.1392 4C63.1392 4 86.0642 33.771 86.0642 52.3451Z" fill="#8E9EEC"/>
<path opacity="0.5" d="M71.213 63.7748C71.213 71.127 67.1502 71.263 62.1386 71.263C57.1269 71.263 48.8987 69.8085 53.0641 63.7748C57.4574 57.4109 64.9943 45.2806 62.1386 44.6382C62.1386 44.6382 71.213 56.4225 71.213 63.7748Z" fill="#6C63FF"/>
</svg>
