<svg width="498" height="481" viewBox="0 0 498 481" fill="none" xmlns="http://www.w3.org/2000/svg">
<path opacity="0.110328" fill-rule="evenodd" clip-rule="evenodd" d="M251.318 437.429C353.557 431.678 440.478 360.036 462.765 260.444C474.547 207.793 467.754 148.658 413.974 96.1118C317.836 2.17907 226.703 64.334 180.077 110.954C157.516 133.47 131.907 152.732 103.991 168.181C53.7838 196.034 -13.4045 255.331 54.4937 354.703C103.706 426.727 183.217 441.259 251.318 437.429Z" fill="#17162A"/>
<g clip-path="url(#clip0)">
<path d="M432 198.138C432 213.405 419.613 237.771 404.333 237.771C389.053 237.771 376.667 213.405 376.667 198.138C376.667 190.807 379.581 183.776 384.77 178.592C389.959 173.407 396.996 170.495 404.333 170.495C411.671 170.495 418.708 173.407 423.897 178.592C429.085 183.776 432 190.807 432 198.138Z" fill="#AC8EEC"/>
<path d="M405.358 238.754C401.881 239.95 401.049 244.687 402.245 248.161C403.441 251.636 405.973 254.517 407.248 257.964C407.829 259.702 408.247 261.49 408.495 263.306C409.223 267.629 409.953 272.029 409.392 276.377C408.86 280.502 407.187 284.39 405.321 288.108C401.708 295.305 397.312 302.084 392.214 308.321" stroke="#2F2E41" stroke-width="2"/>
<path d="M407 240.435C405.222 239.295 403.445 239.295 401.667 240.435V235.106H407V240.435Z" fill="#AC8EEC"/>
<path d="M401.681 237.658C402.509 238.077 403.426 238.294 404.355 238.29C405.284 238.286 406.198 238.062 407.023 237.636" stroke="#2F2E41" stroke-width="2"/>
<path d="M76 193.808C76 209.075 88.3868 233.441 103.667 233.441C118.947 233.441 131.333 209.075 131.333 193.808C131.333 186.477 128.418 179.446 123.23 174.262C118.041 169.078 111.004 166.166 103.667 166.166C96.329 166.166 89.2919 169.078 84.1034 174.262C78.9149 179.446 76 186.477 76 193.808Z" fill="#8E9EEC"/>
<path d="M102.642 234.424C106.119 235.62 106.951 240.358 105.755 243.832C104.559 247.306 102.027 250.188 100.752 253.634C100.171 255.372 99.7532 257.161 99.5053 258.977C98.7773 263.3 98.0472 267.699 98.6082 272.047C99.1403 276.172 100.813 280.061 102.679 283.778C106.293 290.976 110.688 297.754 115.786 303.991" stroke="#2F2E41" stroke-width="2"/>
<path d="M101 236.106C102.778 234.966 104.556 234.966 106.333 236.106V230.777H101V236.106Z" fill="#8E9EEC"/>
<path d="M106.319 233.328C105.491 233.747 104.574 233.964 103.645 233.96C102.716 233.956 101.802 233.732 100.977 233.306" stroke="#2F2E41" stroke-width="2"/>
<path d="M412 315.371C412 331.098 337.978 359 246.667 359C155.356 359 90 302.455 90 286.729C90 271.002 155.356 302.049 246.667 302.049C337.978 302.049 412 299.644 412 315.371Z" fill="#3F3D56"/>
<path opacity="0.1" d="M412 315.371C412 331.098 337.978 359 246.667 359C155.356 359 90 302.455 90 286.729C90 271.002 155.356 302.049 246.667 302.049C337.978 302.049 412 299.644 412 315.371Z" fill="black"/>
<path d="M412 315.204C412 330.931 337.978 343.68 246.667 343.68C155.356 343.68 90 302.455 90 286.729C90 271.002 155.356 286.729 246.667 286.729C337.978 286.729 412 299.478 412 315.204Z" fill="#3F3D56"/>
<path d="M221.397 270.886L218.048 292.245C218.048 292.245 201.565 300.994 213.155 301.252C224.745 301.509 279.347 301.252 279.347 301.252C279.347 301.252 289.907 301.252 273.165 291.988L269.817 269.6L221.397 270.886Z" fill="#2F2E41"/>
<path opacity="0.1" d="M210.824 301.02C213.456 298.68 218.049 296.242 218.049 296.242L221.397 274.883L269.817 274.928L273.165 295.984C277.069 298.145 279.488 299.801 280.903 301.071C283.053 300.581 285.403 298.759 273.165 291.988L269.817 269.6L221.397 270.886L218.049 292.245C218.049 292.245 204.198 299.598 210.824 301.02Z" fill="black"/>
<path d="M346.754 122.018H143.945C139.709 122.018 136.275 125.449 136.275 129.681V266.182C136.275 270.414 139.709 273.845 143.945 273.845H346.754C350.99 273.845 354.424 270.414 354.424 266.182V129.681C354.424 125.449 350.99 122.018 346.754 122.018Z" fill="#2F2E41"/>
<path d="M347.084 130.124H143.615V243.866H347.084V130.124Z" fill="#3F3D56"/>
<path d="M245.349 127.808C246.061 127.808 246.637 127.232 246.637 126.522C246.637 125.811 246.061 125.235 245.349 125.235C244.638 125.235 244.062 125.811 244.062 126.522C244.062 127.232 244.638 127.808 245.349 127.808Z" fill="#F2F2F2"/>
<path d="M354.424 252.873V266.182C354.424 267.189 354.226 268.185 353.841 269.115C353.455 270.045 352.89 270.89 352.178 271.602C351.466 272.313 350.62 272.878 349.69 273.263C348.759 273.648 347.762 273.846 346.754 273.846H143.945C142.937 273.846 141.94 273.648 141.009 273.263C140.079 272.878 139.233 272.313 138.521 271.602C137.809 270.89 137.244 270.045 136.858 269.115C136.473 268.185 136.275 267.189 136.275 266.182V252.873H354.424Z" fill="#2F2E41"/>
<path d="M302.269 315.148V317.721H163.704V315.663L163.895 315.148L167.31 305.884H299.436L302.269 315.148Z" fill="#2F2E41"/>
<path d="M355.594 312.628C355.341 313.707 354.388 314.844 352.235 315.92C344.508 319.78 328.798 314.89 328.798 314.89C328.798 314.89 316.692 312.832 316.692 307.428C317.032 307.195 317.387 306.984 317.754 306.797C321.002 305.08 331.773 300.843 350.871 306.977C352.278 307.418 353.535 308.241 354.501 309.353C355.275 310.259 355.882 311.407 355.594 312.628Z" fill="#2F2E41"/>
<path opacity="0.1" d="M355.593 312.628C346.136 316.249 337.706 316.519 329.055 310.516C324.692 307.489 320.728 306.74 317.753 306.797C321.002 305.08 331.773 300.843 350.871 306.977C352.278 307.418 353.535 308.241 354.501 309.353C355.275 310.259 355.882 311.407 355.593 312.628Z" fill="black"/>
<path d="M343.736 310.516C345.585 310.516 347.084 310.055 347.084 309.486C347.084 308.918 345.585 308.457 343.736 308.457C341.887 308.457 340.388 308.918 340.388 309.486C340.388 310.055 341.887 310.516 343.736 310.516Z" fill="#F2F2F2"/>
<path d="M245.349 268.313C248.052 268.313 250.243 266.124 250.243 263.424C250.243 260.723 248.052 258.534 245.349 258.534C242.647 258.534 240.456 260.723 240.456 263.424C240.456 266.124 242.647 268.313 245.349 268.313Z" fill="#F2F2F2"/>
<path opacity="0.1" d="M302.269 315.147V317.721H163.704V315.662L163.895 315.147H302.269Z" fill="black"/>
<path d="M366.358 183.468C362.881 184.664 362.049 189.401 363.245 192.875C364.441 196.35 366.973 199.231 368.248 202.678C368.829 204.416 369.247 206.204 369.495 208.02C370.223 212.343 370.953 216.743 370.392 221.091C369.86 225.215 368.187 229.104 366.321 232.822C362.708 240.019 358.312 246.798 353.214 253.035" stroke="#2F2E41" stroke-width="2"/>
<path d="M393 142.852C393 158.119 380.613 182.485 365.333 182.485C350.054 182.485 337.667 158.119 337.667 142.852C337.667 135.521 340.582 128.49 345.77 123.306C350.959 118.122 357.996 115.209 365.333 115.209C372.671 115.209 379.708 118.122 384.897 123.306C390.085 128.49 393 135.521 393 142.852Z" fill="#6C63FF"/>
<path d="M368 185.149C366.222 184.009 364.445 184.009 362.667 185.149V179.82H368V185.149Z" fill="#6C63FF"/>
<path d="M362.681 182.372C363.509 182.792 364.426 183.008 365.355 183.004C366.284 183.001 367.198 182.777 368.024 182.351" stroke="#2F2E41" stroke-width="2"/>
</g>
<defs>
<clipPath id="clip0">
<rect width="356" height="277" fill="white" transform="translate(76 82)"/>
</clipPath>
</defs>
</svg>
