<svg width="124" height="120" viewBox="0 0 124 120" fill="none" xmlns="http://www.w3.org/2000/svg">
<path opacity="0.110328" fill-rule="evenodd" clip-rule="evenodd" d="M62.6732 108.613C87.9876 107.222 109.492 89.5951 114.985 65.0657C117.889 52.0978 116.192 37.528 102.862 24.5693C79.0333 1.40401 56.4833 16.693 44.95 28.1661C39.3692 33.7074 33.0329 38.4461 26.1245 42.2451C13.6995 49.094 -2.92218 63.6849 13.9156 88.1829C26.1197 105.939 45.8114 109.539 62.6732 108.613Z" fill="#17162A"/>
<g clip-path="url(#clip0)">
<path d="M61.5001 84.0984C81.6585 84.0984 98.0001 67.7348 98.0001 47.5492C98.0001 27.3636 81.6585 11 61.5001 11C41.3417 11 25.0001 27.3636 25.0001 47.5492C25.0001 67.7348 41.3417 84.0984 61.5001 84.0984Z" fill="#6C63FF"/>
<path d="M65.4219 91.0002L69.3132 76.8345C69.3132 76.8345 79.8161 66.8666 79.2037 58.8941C79.1834 58.6303 79.2037 58.61 79.2037 58.61L79.0689 56.6088C79.0602 56.4789 79.0129 56.3545 78.9331 56.2517C78.8534 56.1488 78.7447 56.0721 78.6212 56.0315C78.4976 55.9908 78.3648 55.988 78.2396 56.0235C78.1145 56.0589 78.0027 56.1309 77.9187 56.2304L75.8393 58.6912L75.0906 59.7001C75.0906 59.7001 73.2451 61.9383 69.8402 60.9236L68.7458 60.7612C68.7458 60.7612 66.0097 62.0804 62.321 59.9697C62.321 59.9697 63.6181 61.5121 60.4564 58.3462C57.2947 55.1802 53.0386 50.2283 53.0386 50.2283C52.3777 49.5203 52.8407 47.5443 53.8068 47.4855C55.9995 47.3519 58.499 46.7643 59.2019 45.9781C59.4699 45.6765 59.6721 45.3222 59.7956 44.9379C59.931 44.5214 59.9718 44.0799 59.9151 43.6457C59.8583 43.2114 59.7054 42.7953 59.4675 42.4278C59.2296 42.0602 58.9127 41.7506 58.54 41.5213C58.1673 41.2921 57.7482 41.1492 57.3132 41.1029C54.7647 40.8348 50.6193 40.6278 49.4339 41.0837C49.3216 41.1275 49.2116 41.1769 49.1043 41.2318C48.3825 41.6041 47.7681 42.1554 47.3195 42.8331C46.8709 43.5108 46.6032 44.2922 46.5418 45.1029C46.2085 49.1823 45.7706 58.1263 47.7816 62.892L50.2823 68.8182L42.5402 90.8175L65.4219 91.0002Z" fill="#2F2E41"/>
<path d="M76.5466 57.6584C76.5466 57.6584 73.3042 58.5518 73.207 55.3854C73.207 55.3854 72.9796 40.5242 61.8833 45.8688C50.787 51.2134 56.2702 58.8231 56.2702 58.8231C56.2702 58.8231 57.7942 58.8576 57.4952 60.0084C57.1963 61.1593 56.726 62.5764 56.726 62.5764C56.726 62.5764 56.692 63.8876 58.2438 63.421C58.2438 63.421 58.702 63.6243 58.0664 64.4974C58.0664 64.4974 58.3472 65.7772 59.148 65.448C59.148 65.448 58.5902 65.6283 58.877 66.0978C59.1638 66.5674 59.2574 66.9939 59.7435 66.6962C60.2296 66.3985 60.6379 66.7936 60.6379 66.7936C60.6379 66.7936 60.7133 69.6507 63.5083 67.9388C66.3033 66.2269 66.0445 65.2564 67.397 65.557C67.5288 65.5858 67.662 65.6074 67.7961 65.6217C68.6282 65.7066 69.4679 65.571 70.2311 65.2284C70.9943 64.8858 71.6541 64.3483 72.1444 63.6697L76.5466 57.6584Z" fill="#6C63FF"/>
<path d="M75.828 50.1304C75.7283 50.1304 75.6285 50.1355 75.5293 50.1458C75.0964 50.1892 74.679 50.3307 74.3089 50.5596C73.9387 50.7885 73.6254 51.0988 73.3927 51.467L70.2022 56.4875C69.9855 56.8279 69.8591 57.218 69.8346 57.621C69.8101 58.0239 69.8885 58.4264 70.0623 58.7907C70.2361 59.1549 70.4997 59.4689 70.8281 59.703C71.1566 59.937 71.5391 60.0835 71.9397 60.1287L72.0022 60.1355C72.376 60.1735 72.7535 60.122 73.1035 59.9852C73.4535 59.8485 73.766 59.6303 74.0153 59.3488L77.9534 54.9124C78.4328 54.381 78.695 53.6884 78.6878 52.9723C78.6805 52.2562 78.4045 51.5691 77.9145 51.0475C77.8954 51.0272 77.8763 51.0072 77.8572 50.9876C77.5937 50.7157 77.2782 50.4997 76.9296 50.3524C76.581 50.2052 76.2064 50.1297 75.828 50.1304Z" fill="#2F2E41"/>
<path d="M71.1365 44.8101C70.6324 44.8101 70.1365 44.9379 69.695 45.1816C69.2535 45.4253 68.8808 45.777 68.6116 46.2038L63.907 53.6793C63.6539 54.077 63.4997 54.5298 63.4574 54.9995C63.415 55.4693 63.4858 55.9423 63.6638 56.379C63.8348 56.8132 64.1072 57.2 64.4583 57.5069C64.8094 57.8139 65.2288 58.0321 65.6815 58.1432C65.713 58.1509 65.7448 58.1586 65.7771 58.166C66.34 58.2928 66.9275 58.2515 67.4672 58.0475C68.0069 57.8434 68.4749 57.4853 68.8136 57.0177C70.1825 55.1411 72.6636 51.6628 73.9008 49.4526C74.1907 48.9451 74.3225 48.3624 74.2792 47.7793C74.236 47.1962 74.0197 46.6394 73.6581 46.1804C73.5122 45.9961 73.3556 45.8206 73.189 45.6548C72.6434 45.1124 71.9054 44.8086 71.1365 44.8101Z" fill="#2F2E41"/>
<path d="M65.2589 40.5664C64.5768 40.5721 63.9145 40.7963 63.3689 41.2062C62.8233 41.6161 62.4231 42.1901 62.2268 42.8442C61.3194 45.8748 59.4109 49.0791 58.3541 50.7193C58.1788 50.9925 58.0606 51.2983 58.0066 51.6184C57.9526 51.9385 57.9639 52.2663 58.0398 52.5819C58.111 52.8847 58.2435 53.1696 58.4292 53.419C58.6149 53.6683 58.8498 53.8768 59.1193 54.0315C59.1568 54.0532 59.1948 54.0739 59.2331 54.0938C60.6677 54.8406 62.469 54.3158 63.3341 52.899L67.9193 45.3882C68.1819 44.9618 68.3401 44.4792 68.3808 43.9799C68.4215 43.4806 68.3436 42.9788 68.1535 42.5154C67.9759 42.0658 67.6946 41.6648 67.3326 41.3449C66.9706 41.0251 66.5381 40.7956 66.0706 40.6752C66.0088 40.6592 65.947 40.6448 65.8851 40.6317C65.6792 40.5883 65.4693 40.5664 65.2589 40.5664Z" fill="#2F2E41"/>
<path d="M54.9066 39.702C55.3244 39.7429 55.7963 39.7717 56.2938 39.8021C58.0648 39.9101 60.0555 40.0315 60.6417 40.7846L60.7575 40.485C60.9132 40.0349 60.9604 39.5543 60.8953 39.0824C60.8301 38.6106 60.6545 38.1608 60.3827 37.7699C60.1251 37.3887 59.7811 37.0739 59.3788 36.8513C58.9765 36.6287 58.5273 36.5046 58.068 36.4892C58.0074 36.4871 57.9469 36.4864 57.8868 36.487C56.3495 36.5033 55.0557 37.7382 54.9415 39.2984C54.932 39.4285 54.9205 39.5614 54.9066 39.702Z" fill="#2F2E41"/>
<path d="M58.508 48.0815C58.474 48.0819 58.4407 48.0918 58.4121 48.1102C57.0564 48.9505 54.834 49.13 53.6299 49.1621C53.5792 49.1634 53.5298 49.1792 53.4877 49.2076C53.4456 49.236 53.4124 49.2758 53.3921 49.3224C53.3714 49.3671 53.364 49.4168 53.3709 49.4656C53.3779 49.5144 53.3988 49.5601 53.4312 49.5972C53.9551 50.2095 55.1803 50.9328 56.3237 51.0834C57.2776 51.2073 58.2047 49.4156 58.6724 48.3352C58.6886 48.3001 58.6927 48.2606 58.6842 48.2229C58.6758 48.1852 58.6551 48.1513 58.6254 48.1265C58.5929 48.098 58.5512 48.0821 58.508 48.0815Z" fill="#2F2E41"/>
</g>
<defs>
<clipPath id="clip0">
<rect width="73" height="80" fill="white" transform="translate(25.0001 11)"/>
</clipPath>
</defs>
</svg>
