<svg width="128" height="120" viewBox="0 0 128 120" fill="none" xmlns="http://www.w3.org/2000/svg">
<path opacity="0.110328" fill-rule="evenodd" clip-rule="evenodd" d="M62.6732 108.613C87.9876 107.222 109.492 89.5951 114.985 65.0657C117.889 52.0978 116.192 37.528 102.862 24.5693C79.0333 1.40401 56.4833 16.693 44.95 28.1661C39.3692 33.7074 33.0329 38.4461 26.1245 42.2451C13.6995 49.094 -2.92218 63.6849 13.9156 88.1829C26.1197 105.939 45.8114 109.539 62.6732 108.613Z" fill="#17162A"/>
<path d="M59.6347 60.5894C60.3549 60.6821 61.1021 60.7409 61.7918 60.5163C61.9004 60.4825 62.0199 60.4072 62.0091 60.2982C62.0013 60.2586 61.9846 60.2213 61.9602 60.1891C61.7002 59.7977 61.4818 59.3799 61.3085 58.9427C61.3016 58.9199 61.2875 58.9 61.2683 58.886C61.2459 58.8778 61.2213 58.8778 61.1988 58.886C60.8806 58.97 60.6058 59.1761 60.2897 59.2644C60.1285 59.3088 59.9603 59.3214 59.7944 59.3015C59.651 59.2851 59.4555 59.1663 59.3252 59.1815C59.3991 59.6581 59.5794 60.103 59.6347 60.5894Z" fill="#6C63FF"/>
<path d="M73.2539 59.3819C73.7285 59.0548 74.2205 58.7113 74.5008 58.2064C74.5208 58.1762 74.5324 58.1412 74.5344 58.105C74.5296 58.0693 74.5158 58.0355 74.4942 58.0068C74.2273 57.5808 73.8837 57.2084 73.4809 56.9087C73.2707 57.0577 73.0808 57.2337 72.9161 57.4321C72.7966 57.5586 72.4664 57.7593 72.4631 57.9523C72.4631 58.0613 72.5891 58.1878 72.6478 58.2794C72.7271 58.3972 72.802 58.5172 72.8737 58.6393C72.915 58.6993 73.2919 59.3579 73.2539 59.3819Z" fill="#6C63FF"/>
<path d="M62.4576 62.0496C62.4661 62.1619 62.4354 62.2737 62.3707 62.3658C62.32 62.417 62.2572 62.4545 62.1882 62.4748C61.1814 62.8369 60.0159 62.3854 59.0112 62.742C58.8049 62.8151 58.6094 62.9209 58.4019 62.9906C58.1546 63.0653 57.8994 63.1107 57.6416 63.1259C57.2864 63.1597 56.9291 63.1815 56.5728 63.1913C56.3022 63.2105 56.0301 63.1866 55.7669 63.1204C55.6353 63.0866 55.5122 63.0253 55.4057 62.9406C55.2993 62.8558 55.2117 62.7495 55.1489 62.6286C55.0943 62.5202 55.0834 62.3948 55.1185 62.2786C55.1342 62.2387 55.1566 62.2018 55.1847 62.1695C55.2528 62.0928 55.3328 62.0276 55.4215 61.9765L55.7919 61.7366C55.9656 61.6133 56.1543 61.5129 56.3534 61.4378C56.5001 61.3898 56.6554 61.3691 56.8042 61.3287C57.3244 61.1761 57.722 60.7617 58.0913 60.3637L58.5952 59.8239C58.6424 59.7645 58.7021 59.7164 58.7701 59.6832C58.84 59.6598 58.9143 59.6527 58.9873 59.6625C59.4769 59.6976 59.9496 59.8566 60.3613 60.1248C60.4666 60.2041 60.5802 60.2714 60.7002 60.3255C60.9956 60.4411 61.3747 60.3538 61.6473 60.2077C61.7766 60.1379 61.7483 60.0987 61.8026 59.9743C61.857 59.85 61.9895 59.7704 62.1046 59.8838C62.1393 59.923 62.1639 59.9702 62.1763 60.0212C62.2849 60.3811 62.2436 60.7682 62.2436 61.1455C62.2404 61.2045 62.2478 61.2636 62.2653 61.32C62.2931 61.3769 62.3262 61.4309 62.3642 61.4814C62.3719 61.4948 62.3788 61.5086 62.3848 61.5228C62.4513 61.6899 62.4762 61.8707 62.4576 62.0496Z" fill="#514E7F"/>
<path d="M62.4576 62.0495C62.4661 62.1619 62.4353 62.2737 62.3707 62.3658C62.32 62.417 62.2572 62.4545 62.1882 62.4748C61.1814 62.8369 60.0159 62.3854 59.0112 62.742C58.8049 62.815 58.6094 62.9208 58.4019 62.9906C58.1546 63.0653 57.8994 63.1107 57.6416 63.1258C57.2864 63.1596 56.9291 63.1815 56.5728 63.1913C56.3022 63.2105 56.0301 63.1866 55.7669 63.1204C55.6353 63.0866 55.5122 63.0253 55.4057 62.9405C55.2993 62.8558 55.2117 62.7495 55.1489 62.6286C55.0943 62.5202 55.0834 62.3948 55.1185 62.2785C55.1342 62.2387 55.1566 62.2018 55.1847 62.1695C55.2434 62.2927 55.2857 62.4563 55.3227 62.5152C55.3726 62.6024 55.4404 62.678 55.5217 62.7369C55.603 62.7957 55.6958 62.8365 55.7941 62.8565C55.9411 62.8655 56.0885 62.8467 56.2285 62.8009C57.1409 62.574 58.1108 62.5708 58.9873 62.2273C59.2882 62.1084 59.5749 61.9503 59.891 61.8783C60.2071 61.8063 60.5427 61.826 60.8685 61.7987C61.3834 61.7573 61.8819 61.6013 62.3892 61.5195C62.4547 61.688 62.4781 61.8699 62.4576 62.0495Z" fill="#464353"/>
<path d="M75.5597 59.3159C75.512 59.6998 75.2697 60.0302 75.0036 60.3104C74.7375 60.5907 74.4367 60.8426 74.2249 61.1654C73.9642 61.5656 73.8469 62.0618 73.508 62.3998C73.3779 62.5228 73.2318 62.6273 73.0735 62.7106C72.8963 62.8156 72.7089 62.9022 72.5142 62.9691C72.008 63.1316 71.4628 63.0945 70.9338 63.0552C70.7621 63.0536 70.5921 63.0207 70.432 62.9582C70.3592 62.921 70.2894 62.878 70.2235 62.8295C70.0909 62.7475 69.9793 62.6355 69.8976 62.5023C69.8575 62.4299 69.8463 62.345 69.8661 62.2646C69.8964 62.1761 69.9483 62.0966 70.0171 62.0334C70.1361 61.9091 70.2639 61.7936 70.3994 61.6877C70.5854 61.5672 70.753 61.4203 70.8969 61.2515C70.9852 61.1182 71.0502 60.9707 71.0892 60.8153C71.1661 60.5432 71.2131 60.2635 71.2293 59.9811C71.2287 59.7935 71.248 59.6063 71.2868 59.4228C71.3672 59.1349 71.5801 58.8775 71.5562 58.5798C71.5465 58.5372 71.5503 58.4926 71.5671 58.4522C71.5923 58.4207 71.6276 58.3988 71.667 58.3901C71.833 58.3236 72.008 58.2828 72.1862 58.269C72.2755 58.2628 72.3651 58.2766 72.4485 58.3095C72.5319 58.3423 72.607 58.3933 72.6684 58.4588C72.7423 58.5482 72.7911 58.6769 72.8998 58.7118C72.9536 58.7265 73.01 58.7287 73.0649 58.7183C73.3321 58.691 73.6145 58.6572 73.8252 58.4839C73.9226 58.3961 74.0008 58.2892 74.055 58.1696C74.1092 58.0501 74.1382 57.9205 74.1401 57.7892C74.1401 57.69 74.0956 57.5864 74.2488 57.5711C74.3639 57.5558 74.4551 57.6802 74.5138 57.7565C74.7256 58.0411 74.9428 58.3388 75.0221 58.6856C75.0529 58.6736 75.0857 58.6673 75.1188 58.6671C75.1865 58.6665 75.2534 58.6823 75.3137 58.7133C75.3741 58.7442 75.426 58.7893 75.4652 58.8448C75.5517 58.9855 75.5853 59.1526 75.5597 59.3159Z" fill="#514E7F"/>
<path d="M75.5598 59.3156C75.512 59.6995 75.2698 60.0299 75.0037 60.3101C74.7376 60.5904 74.4367 60.8423 74.2249 61.1651C73.9642 61.5653 73.8469 62.0615 73.5081 62.3995C73.378 62.5224 73.2318 62.627 73.0736 62.7103C72.8964 62.8153 72.7089 62.9019 72.5142 62.9688C72.0081 63.1312 71.4628 63.0942 70.9339 63.0549C70.7622 63.0532 70.5921 63.0204 70.4321 62.9578C70.3592 62.9207 70.2895 62.8777 70.2235 62.8292C70.091 62.7472 69.9794 62.6351 69.8977 62.502C69.9995 62.4529 70.1106 62.4261 70.2235 62.4235C70.4582 62.4366 70.6298 62.6591 70.8546 62.7278C71.175 62.8248 71.4943 62.598 71.8191 62.5206C72.0309 62.4704 72.2536 62.4835 72.4632 62.4115C72.6379 62.3437 72.7993 62.2455 72.94 62.1214C73.1329 61.983 73.3045 61.8169 73.4494 61.6285C73.5698 61.4401 73.6699 61.2395 73.7481 61.0299C73.9196 60.6282 74.1215 60.2403 74.352 59.8696C74.3861 59.8109 74.4273 59.7567 74.4747 59.7082C74.5258 59.6613 74.5833 59.6286 74.6409 59.5871C74.8581 59.4225 74.9483 59.1509 75.0243 58.8849C75.0449 58.804 75.0737 58.7254 75.1101 58.6504C75.1779 58.6498 75.2448 58.6657 75.3051 58.6966C75.3654 58.7276 75.4174 58.7727 75.4566 58.8282C75.5501 58.9722 75.5868 59.1459 75.5598 59.3156Z" fill="#464353"/>
<path d="M57.8534 41.8632C57.9968 42.4084 57.7893 42.982 57.6199 43.5218C57.3648 44.3349 57.1908 45.1714 57.1007 46.0191C57.0896 46.2348 57.0464 46.4476 56.9725 46.6505C56.8921 46.8326 56.7553 46.9863 56.6619 47.1597C56.4055 47.6156 56.4121 48.1717 56.4675 48.693C56.5044 49.0365 56.5598 49.3789 56.6282 49.7169C56.7118 50.1302 56.815 50.5621 56.6945 50.9656C56.8965 50.9208 57.0333 51.1837 57.0203 51.3898C57.0073 51.5959 56.941 51.826 57.0399 52.0037C57.2897 52.0953 57.2918 52.4399 57.2842 52.7071C57.2884 53.1703 57.3467 53.6315 57.458 54.0811C57.836 55.9059 58.2372 57.7256 58.6615 59.5401C59.5793 59.8258 60.6513 60.1236 61.5267 59.7277C61.6897 59.6546 61.8526 59.538 61.8895 59.3613C61.8991 59.2661 61.8872 59.1699 61.8548 59.0799L61.4398 57.5642C61.3388 57.1977 61.2378 56.8193 61.291 56.4431C61.3312 56.1629 61.4529 55.8608 61.316 55.6133C61.2693 55.5282 61.1955 55.4617 61.1412 55.381C60.9239 55.0615 61.038 54.634 61.0554 54.2469C61.0621 54.16 61.0563 54.0725 61.038 53.9873C61.0082 53.8878 60.9666 53.7923 60.9142 53.7027C60.5713 53.0343 60.4066 52.2882 60.4362 51.537C60.4492 51.4411 60.4361 51.3435 60.3982 51.2545C60.3719 51.2178 60.3483 51.1792 60.3276 51.1389C60.3114 51.0689 60.3195 50.9955 60.3504 50.9307C60.226 50.8358 60.1136 50.726 60.0159 50.6035C60.0762 50.5659 60.1271 50.5151 60.1649 50.4548C60.2027 50.3945 60.2264 50.3264 60.2341 50.2556C60.2418 50.1848 60.2335 50.1132 60.2096 50.0461C60.1857 49.9791 60.147 49.9183 60.0963 49.8685C60.1406 49.8596 60.1815 49.8385 60.2146 49.8075C60.2477 49.7766 60.2715 49.7371 60.2836 49.6934C60.2956 49.6496 60.2954 49.6034 60.2828 49.5598C60.2703 49.5163 60.2459 49.477 60.2125 49.4465C60.1593 49.4094 60.0887 49.3931 60.0507 49.3375C59.992 49.2568 60.0398 49.1444 60.0876 49.0583L60.3407 48.5992C60.5297 48.2579 60.572 47.8358 60.7751 47.5087C61.0662 47.0321 61.2563 46.5011 61.4442 45.9755L62.1752 43.9504L62.6672 44.379C62.8311 44.5047 62.9684 44.6618 63.0712 44.8413C63.1412 45.0187 63.1855 45.2053 63.2027 45.3953C63.383 46.4945 64.0716 47.4476 64.3268 48.5305C64.3833 48.7715 64.4213 49.0245 64.5593 49.2306C64.6086 49.2939 64.6529 49.361 64.6918 49.4312C64.7277 49.5384 64.7464 49.6507 64.7472 49.7638C64.77 49.9853 64.8399 50.1993 64.9524 50.3912C65.0648 50.5832 65.2171 50.7485 65.3989 50.8761C65.6411 51.043 65.9419 51.1575 66.0734 51.4214C66.0997 51.5031 66.1361 51.5812 66.182 51.6537C66.2993 51.7954 66.5524 51.8118 66.6023 51.9895C66.6306 52.0888 66.5784 52.2076 66.6338 52.2949C66.6653 52.3353 66.7069 52.3665 66.7544 52.3854L67.4615 52.7398C68.2522 53.1367 68.6562 54.0484 69.2395 54.7125C69.4409 54.9288 69.6193 55.1656 69.7717 55.4191C70.0237 55.8717 70.1399 56.4399 70.5657 56.7277C70.6801 56.7873 70.7843 56.865 70.8741 56.9578C71.0077 57.1345 70.9589 57.382 70.9708 57.6045C70.9828 57.827 71.1522 58.092 71.3629 58.0243C71.2891 58.2938 71.2891 58.5782 71.3629 58.8477C72.288 58.8 73.1702 58.4412 73.8676 57.8291C74.0739 57.6481 74.2727 57.4169 74.2749 57.1421C74.278 57.0947 74.2675 57.0474 74.2445 57.0058C74.2027 56.9521 74.1477 56.9104 74.0848 56.8848C73.4233 56.5249 73.2246 55.6907 72.89 55.0135C72.5979 54.4159 72.1656 53.9012 71.8039 53.3461C71.0175 52.152 70.481 50.7071 69.2916 49.9187C69.0299 49.7453 68.7257 49.5915 68.5943 49.3047C68.5215 49.1444 68.5129 48.9612 68.4553 48.7955C68.3977 48.6297 68.2598 48.4683 68.0838 48.4683C68.1816 48.2284 68.162 47.9362 68.1685 47.6766C68.1752 47.5614 68.162 47.446 68.1294 47.3353C68.0843 47.2163 68.0256 47.1028 67.9546 46.9972C67.6443 46.4698 67.4891 45.8648 67.5071 45.2524C67.5158 44.9373 67.5712 44.6123 67.4767 44.3114C67.4289 44.1598 67.3452 44.0213 67.2877 43.8752C67.2009 43.6104 67.1551 43.3338 67.1519 43.0551L67.0867 42.0071C67.0769 41.6581 67.0318 41.311 66.9521 40.9712C66.7348 40.1576 66.5176 36.7498 65.7736 36.366C65.0296 35.9821 63.7512 38.6048 62.9138 38.656C62.5433 38.6715 62.1772 38.7425 61.8276 38.8665C61.2704 39.0759 60.8034 39.4663 60.3483 39.8479L58.8081 41.1467C58.4823 41.4161 58.2129 41.6734 57.8534 41.8632Z" fill="#464353"/>
<path d="M82.1505 44.7061V43.3517C82.1502 42.3547 81.7555 41.3986 81.0532 40.6937C80.3509 39.9888 79.3985 39.5928 78.4054 39.5928H25.1309C24.1378 39.5928 23.1854 39.9888 22.4831 40.6937C21.7808 41.3986 21.3862 42.3547 21.3859 43.3517V45.849L82.1505 44.7061Z" fill="#33323D"/>
<path d="M39.9515 38.0049C39.9515 38.0049 39.7994 47.4769 41.4721 50.5935C43.1448 53.7102 43.8616 67.2683 43.8616 67.2683C43.8616 67.2683 61.3964 69.0895 73.6156 65.0873C85.8347 61.0852 111.835 59.4484 111.835 59.4484L107.453 29.7989C107.453 29.7989 85.8076 28.4052 73.4939 34.3015C61.1802 40.1978 39.9515 38.0049 39.9515 38.0049Z" fill="#6C63FF"/>
<path opacity="0.1" d="M39.9515 38.0049C39.9515 38.0049 39.7994 47.4769 41.4721 50.5935C43.1448 53.7102 43.8616 67.2683 43.8616 67.2683C43.8616 67.2683 61.3964 69.0895 73.6156 65.0873C85.8347 61.0852 111.835 59.4484 111.835 59.4484L107.453 29.7989C107.453 29.7989 85.8076 28.4052 73.4939 34.3015C61.1802 40.1978 39.9515 38.0049 39.9515 38.0049Z" fill="black"/>
<path d="M43.8323 41.4652C43.8323 41.4652 43.2838 49.2808 44.6599 51.778C46.0361 54.2753 46.1002 65.4234 46.1002 65.4234C46.1002 65.4234 61.8808 66.1584 73.1062 62.3221C84.3315 58.4857 107.92 55.9972 107.92 55.9972L105.24 31.75C105.24 31.75 85.7218 31.5483 74.3303 36.9484C62.9387 42.3485 43.8323 41.4652 43.8323 41.4652Z" fill="#6C63FF"/>
<path opacity="0.1" d="M74.1569 57.8824C76.4022 57.6016 77.7362 53.4544 77.1363 48.6195C76.5365 43.7845 74.2301 40.0926 71.9847 40.3734C69.7394 40.6542 68.4054 44.8013 69.0053 49.6363C69.6051 54.4713 71.9116 58.1631 74.1569 57.8824Z" fill="black"/>
<path opacity="0.2" d="M95.5862 15.3555C95.5862 15.3555 74.5573 20.6989 64.6407 30.1044C54.7242 39.51 33.8484 43.9635 33.8484 43.9635C33.8484 43.9635 36.5985 53.0245 39.1423 55.4759C41.686 57.9274 46.5107 70.612 46.5107 70.612C46.5107 70.612 63.7555 66.9414 74.1608 59.3646C84.5661 51.7879 108.817 42.2188 108.817 42.2188L95.5862 15.3555Z" fill="black"/>
<path d="M33.5322 42.607C33.5322 42.607 36.2813 51.669 38.8229 54.1205C41.3644 56.5719 46.1913 69.2555 46.1913 69.2555C46.1913 69.2555 63.4382 65.5859 73.8446 58.0092C84.251 50.4324 108.499 40.8666 108.499 40.8666L95.2689 14C95.2689 14 74.2411 19.3434 64.3245 28.749C54.408 38.1545 33.5322 42.607 33.5322 42.607Z" fill="#6C63FF"/>
<path opacity="0.1" d="M33.5322 42.607C33.5322 42.607 36.2813 51.669 38.8229 54.1205C41.3644 56.5719 46.1913 69.2555 46.1913 69.2555C46.1913 69.2555 63.4382 65.5859 73.8446 58.0092C84.251 50.4324 108.499 40.8666 108.499 40.8666L95.2689 14C95.2689 14 74.2411 19.3434 64.3245 28.749C54.408 38.1545 33.5322 42.607 33.5322 42.607Z" fill="black"/>
<path d="M38.2798 44.7051C38.2798 44.7051 40.1469 52.3135 42.2203 54.2655C44.2938 56.2175 47.7597 66.8062 47.7597 66.8062C47.7597 66.8062 63.0027 62.6427 72.5141 55.5327C82.0255 48.4226 103.718 38.7968 103.718 38.7968L93.757 16.5376C93.757 16.5376 75.1198 22.3576 65.9277 31.0074C56.7356 39.6572 38.2798 44.7051 38.2798 44.7051Z" fill="#6C63FF"/>
<path opacity="0.1" d="M72.1625 50.9871C74.2137 50.0281 74.2158 45.6701 72.1672 41.2532C70.1185 36.8363 66.795 34.0331 64.7438 34.9921C62.6926 35.9511 62.6905 40.3091 64.7391 44.726C66.7878 49.1429 70.1113 51.9461 72.1625 50.9871Z" fill="black"/>
<path opacity="0.1" d="M83.5886 46.0354V83.6576C83.5886 84.0848 83.5047 84.5079 83.3418 84.9027C83.1789 85.2974 82.9402 85.656 82.6392 85.9581C82.3382 86.2602 81.9809 86.4998 81.5877 86.6632C81.1945 86.8266 80.7731 86.9106 80.3475 86.9105H24.6281C23.7689 86.9102 22.9451 86.5674 22.3377 85.9574C21.7304 85.3473 21.3892 84.5201 21.3892 83.6576V42.2427C22.9858 42.8381 22.9858 42.8381 24.6281 42.7879H80.3475C81.206 42.7879 82.0293 43.1299 82.637 43.7387C83.2446 44.3475 83.5868 45.1735 83.5886 46.0354Z" fill="black"/>
<path d="M83.5886 46.5141V84.1362C83.5883 84.999 83.2467 85.8264 82.6389 86.4364C82.0311 87.0464 81.2069 87.3891 80.3475 87.3891H24.6281C23.7689 87.3888 22.9451 87.046 22.3377 86.436C21.7304 85.8259 21.3892 84.9987 21.3892 84.1362V42.7202C22.9858 43.3145 22.9858 43.3145 24.6281 43.2655H80.3475C81.2061 43.2655 82.0297 43.6075 82.6374 44.2166C83.245 44.8257 83.5871 45.652 83.5886 46.5141Z" fill="#504F60"/>
<path opacity="0.1" d="M83.43 60.4238V72.4553H71.8082C70.2331 72.434 68.7297 71.7908 67.6233 70.665C66.5169 69.5391 65.8966 68.0211 65.8966 66.4395C65.8966 64.858 66.5169 63.34 67.6233 62.2141C68.7297 61.0883 70.2331 60.4451 71.8082 60.4238H83.43Z" fill="black"/>
<path d="M83.5886 60.103V72.1367H71.9668C70.3916 72.1154 68.8882 71.4722 67.7818 70.3463C66.6755 69.2205 66.0552 67.7025 66.0552 66.1209C66.0552 64.5393 66.6755 63.0214 67.7818 61.8955C68.8882 60.7697 70.3916 60.1265 71.9668 60.1052L83.5886 60.103Z" fill="#33323D"/>
<path opacity="0.1" d="M72.524 68.7855C73.8144 68.7855 74.8604 67.7354 74.8604 66.4399C74.8604 65.1444 73.8144 64.0942 72.524 64.0942C71.2337 64.0942 70.1877 65.1444 70.1877 66.4399C70.1877 67.7354 71.2337 68.7855 72.524 68.7855Z" fill="black"/>
<path d="M72.6825 68.4672C73.9728 68.4672 75.0188 67.417 75.0188 66.1215C75.0188 64.8261 73.9728 63.7759 72.6825 63.7759C71.3922 63.7759 70.3462 64.8261 70.3462 66.1215C70.3462 67.417 71.3922 68.4672 72.6825 68.4672Z" fill="#6C63FF"/>
</svg>
